<svg xmlns="http://www.w3.org/2000/svg" width="1600" height="1600">
  <svg width="1600" height="1600" version="1.1" viewBox="0 0 1200 1200" id="SvgjsSvg1013"
    xmlns="http://www.w3.org/2000/svg" xmlns:svg="http://www.w3.org/2000/svg">
    <defs id="SvgjsDefs1010">
      <path id="SvgjsRect1009" d="M434.664 179.163h553.067v716.65H434.664z" />
      <path id="SvgjsRect1008" d="M434.664 179.163h553.067v716.65H434.664z" />
    </defs>
    <g id="SvgjsG1006" transform="rotate(-52 599.597 599.898)" style="fill:#e5e7eb;fill-opacity:1">
      <path
        d="M626.4 1068c25.199 25.199 57.602 38.398 93.602 38.398 34.801 0 68.398-13.199 93.602-38.398l31.199-31.199c12-12 14.398-32.398 3.602-46.801-30-40.801-25.2-96 9.601-132 36-36 91.2-39.602 132-9.602 14.398 10.801 33.602 8.399 46.801-3.601l31.2-31.2c51.601-51.601 51.601-135.6 0-187.2C878.062 444.498 749.39 307.783 573.606 132c-51.601-51.602-135.6-51.602-187.2 0l-31.198 31.2c-12 12-14.398 32.397-3.602 46.8 30 40.801 25.2 96-9.601 132-36 36-91.2 39.602-132 9.602-14.398-10.801-33.602-8.398-46.801 3.602l-31.203 31.195C106.802 411.6 92.4 444 92.4 480c0 34.8 13.199 68.398 38.398 93.602zm409.2-348c0 15.602-6 31.199-18 42l-10.801 10.801c-66-32.398-145.2-20.398-199.2 33.602s-66 133.2-33.602 199.2l-10.801 10.801c-10.801 10.801-26.398 18-42 18s-31.199-6-42-18l-343.2-340.8 339.6-339.6 342 342c10.797 10.801 18 26.398 18 42zM182.4 436.8l10.801-10.801c66 32.398 145.2 20.398 199.2-33.602s66-133.2 33.602-199.2l10.801-10.801c10.801-10.801 26.398-18 42-18s31.199 6 42 18l102 102-338.4 339.6-102-102c-10.801-10.801-18-26.398-18-42 0-16.801 7.203-31.199 18-43.199z"
        id="SvgjsPath1005" style="fill:#e5e7eb;fill-opacity:1" />
    </g>
    <g id="SvgjsG1004" transform="rotate(-52 599.597 599.898)" style="fill:#000;fill-opacity:1">
      <g aria-label="T" transform="rotate(45 325.467 671.276) scale(.75)" id="SvgjsG1003"
        style="font-size:533.333px;font-family:&quot;Averta Demo PE Cutted Demo&quot;;-inkscape-font-specification:&quot;Averta Demo PE Cutted Demo, Normal&quot;;white-space:pre;shape-inside:url(#rect451);display:inline;stroke-width:3.2126;stroke-opacity:.533333">
        <path
          d="m766.012 383.361 10.254-85.84H481.539l-10.254 85.84h99.317l-41.895 340.43h96.094l41.601-340.43z"
          style="font-style:italic;font-size:600px;font-family:Averta-ExtraBoldItalic;-inkscape-font-specification:&quot;Averta-ExtraBoldItalic, Italic&quot;;fill:#e5e7eb;fill-opacity:1"
          id="SvgjsPath1002" />
      </g>
      <g aria-label="T" transform="rotate(45 131.983 847.96) scale(.75)" id="SvgjsG1001"
        style="font-size:533.333px;font-family:&quot;Averta Demo PE Cutted Demo&quot;;-inkscape-font-specification:&quot;Averta Demo PE Cutted Demo, Normal&quot;;white-space:pre;shape-inside:url(#rect451-7);display:inline;stroke-width:3.2126;stroke-opacity:.533333">
        <path
          d="m766.012 383.361 10.254-85.84H481.539l-10.254 85.84h99.317l-41.895 340.43h96.094l41.601-340.43z"
          style="font-style:italic;font-size:600px;font-family:Averta-ExtraBoldItalic;-inkscape-font-specification:&quot;Averta-ExtraBoldItalic, Italic&quot;;fill:#e5e7eb;fill-opacity:1"
          id="SvgjsPath1000" />
      </g>
    </g>
  </svg>
  <style>@media (prefers-color-scheme:light){:root{filter:contrast(1) brightness(.7)}}@media
    (prefers-color-scheme:dark){:root{filter:contrast(1) brightness(1.1)}}</style>
</svg>
