<?xml version="1.0" encoding="UTF-8" standalone="no"?>
<svg
   width="1200pt"
   height="1200pt"
   version="1.1"
   viewBox="0 0 1200 1200"
   id="svg8"
   sodipodi:docname="noun-ticket-1057595.svg"
   inkscape:version="1.2.1 (9c6d41e410, 2022-07-14)"
   inkscape:export-filename="..\Github\tixtrend\site\public\logo-gray.svg"
   inkscape:export-xdpi="96"
   inkscape:export-ydpi="96"
   xmlns:inkscape="http://www.inkscape.org/namespaces/inkscape"
   xmlns:sodipodi="http://sodipodi.sourceforge.net/DTD/sodipodi-0.dtd"
   xmlns="http://www.w3.org/2000/svg"
   xmlns:svg="http://www.w3.org/2000/svg">
   <defs>
      <style>
         @import url("https://fonts.cdnfonts.com/css/averta-blackitalic");
      </style>
   </defs>
   <defs
      id="defs12">
      <rect
         x="434.66406"
         y="179.16261"
         width="553.0672"
         height="716.65045"
         id="rect451" />
      <rect
         x="434.66406"
         y="179.16261"
         width="553.0672"
         height="716.65045"
         id="rect451-7" />
   </defs>
   <sodipodi:namedview
      id="namedview10"
      pagecolor="#ffffff"
      bordercolor="#000000"
      borderopacity="0.25"
      inkscape:showpageshadow="2"
      inkscape:pageopacity="0.0"
      inkscape:pagecheckerboard="0"
      inkscape:deskcolor="#d1d1d1"
      inkscape:document-units="pt"
      showgrid="false"
      inkscape:zoom="0.641875"
      inkscape:cx="1212.074"
      inkscape:cy="1123.2717"
      inkscape:window-width="2560"
      inkscape:window-height="1369"
      inkscape:window-x="1072"
      inkscape:window-y="182"
      inkscape:window-maximized="1"
      inkscape:current-layer="g1256" />
   <g
      id="g6"
      transform="rotate(-52,599.5968,599.89817)"
      style="fill:#000000;fill-opacity:1">
      <path
         d="m 626.4,1068 c 25.199,25.199 57.602,38.398 93.602,38.398 34.801,0 68.398,-13.199 93.602,-38.398 l 31.199,-31.199 c 12,-12 14.398,-32.398 3.6016,-46.801 -30,-40.801 -25.199,-96 9.6016,-132 36,-36 91.199,-39.602 132,-9.6016 14.398,10.801 33.602,8.3984 46.801,-3.6016 l 31.199,-31.199 c 51.602,-51.602 51.602,-135.6 0,-187.2 C 878.06339,444.49613 749.39043,307.78203 573.6078,131.9994 c -51.602,-51.602 -135.6,-51.602 -187.2,0 l -31.199,31.199 c -12,12 -14.398,32.398 -3.6016,46.801 30,40.801 25.199,96 -9.6016,132 -36,36 -91.199,39.602 -132,9.6016 -14.398,-10.801 -33.602,-8.3984 -46.801,3.6016 l -31.203,31.195 c -25.199,25.203 -39.602,57.602 -39.602,93.602 0,34.801 13.199,68.398 38.398,93.602 z m 409.2,-348 c 0,15.602 -6,31.199 -18,42 l -10.801,10.801 c -66,-32.398 -145.2,-20.398 -199.2,33.602 -54,54 -66,133.2 -33.602,199.2 l -10.801,10.801 c -10.801,10.801 -26.398,18 -42,18 -15.602,0 -31.199,-6 -42,-18 l -343.2,-340.8 339.6,-339.6 342,342 c 10.797,10.801 18,26.398 18,42 z M 182.4,436.8 193.201,425.999 c 66,32.398 145.2,20.398 199.2,-33.602 54,-54 66,-133.2 33.602,-199.2 l 10.801,-10.801 c 10.801,-10.801 26.398,-18 42,-18 15.602,0 31.199,6 42,18 l 102,102 -338.4,339.6 -102,-102 c -10.801,-10.801 -18,-26.398 -18,-42 0,-16.801 7.2031,-31.199 18,-43.199 z"
         id="path2"
         sodipodi:nodetypes="cscsccccscccscccccscccccscssccccccccscsscccsscc"
         style="fill:#000000;fill-opacity:1" />
   </g>
   <g
      id="g1256"
      transform="rotate(-52,599.5968,599.89817)"
      style="fill:#000000;fill-opacity:1">
      <text
         xml:space="preserve"
         transform="matrix(0.53033009,0.53033009,-0.53033009,0.53033009,569.9909,-33.527821)"
         id="text449"
         style="font-style:normal;font-variant:normal;font-weight:normal;font-stretch:normal;font-size:533.333px;font-family:'Averta Demo PE Cutted Demo';-inkscape-font-specification:'Averta Demo PE Cutted Demo, Normal';font-variant-ligatures:normal;font-variant-caps:normal;font-variant-numeric:normal;font-variant-east-asian:normal;white-space:pre;shape-inside:url(#rect451);display:inline;fill:#000000;fill-opacity:1;stroke:none;stroke-width:3.2126;stroke-opacity:0.533333"><tspan
         x="434.66406"
         y="728.91939"
         id="tspan3253"><tspan
           style="font-size:600px;font-family:'Averta Demo PE';-inkscape-font-specification:'Averta Demo PE, Normal'"
           id="tspan3251">T</tspan></tspan></text>
      <text
         xml:space="preserve"
         transform="matrix(0.53033009,0.53033009,-0.53033009,0.53033009,638.25452,155.03552)"
         id="text449-9"
         style="font-style:normal;font-variant:normal;font-weight:normal;font-stretch:normal;font-size:533.333px;font-family:'Averta Demo PE Cutted Demo';-inkscape-font-specification:'Averta Demo PE Cutted Demo, Normal';font-variant-ligatures:normal;font-variant-caps:normal;font-variant-numeric:normal;font-variant-east-asian:normal;white-space:pre;shape-inside:url(#rect451-7);display:inline;fill:#000000;fill-opacity:1;stroke:none;stroke-width:3.2126;stroke-opacity:0.533333"><tspan
         x="434.66406"
         y="728.91939"
         id="tspan3257"><tspan
           style="font-size:600px;font-family:'Averta Demo PE';-inkscape-font-specification:'Averta Demo PE, Normal'"
           id="tspan3255">T</tspan></tspan></text>
   </g>
</svg>
