<svg version="1.0" xmlns="http://www.w3.org/2000/svg" width="240" height="240" viewBox="0 0 180 180">
    <path
        d="M124.5 38.5c-4.9.8-28.1 3.7-51.5 6.5s-44 5.5-45.7 6.1c-4.3 1.4-11.1 9.2-11.9 13.6-.9 4.5.1 15 1.5 16.7.6.7 2.8 1.6 4.9 2 5.8.9 10.1 4.1 12.4 9.2 3.5 8 .4 15.6-8.3 19.9l-5.2 2.7.5 6.8c.9 11.7 7.4 19.6 17.1 20.7 6.1.7 110.3-12.4 115-14.4 8.2-3.5 12.3-11.4 11.4-22-.6-7.5-1.5-8.9-6.6-9.8-5.9-1-10-4-12.2-9.1-3.7-8.2-.5-16 8.1-19.9 4.7-2.1 5.6-4.3 4.6-11.8-.9-6.7-4-12-8.9-15.4-4.8-3.3-11.9-3.8-25.2-1.8zm19.9 11.7c1.4 1.3 2.8 3.4 3.1 4.8.5 2.1-.1 3-3.7 5.6-9.1 6.4-12.7 19.5-8.5 30.6 2.1 5.5 9.8 13 14.9 14.4 2.8.8 3.4 1.5 3.6 4.3.4 3.6-1.8 7.7-4.5 8.5-2.3.7-74.5 9.8-74.7 9.4-.7-1.1-8.6-70.2-8.1-70.7.8-.7 64.1-8.8 70.7-9 3.6-.1 5.3.4 7.2 2.1zM55 59.7c.1 1 2 17 4.4 35.6 2.3 18.6 4 33.9 3.7 34.1s-5.9.9-12.4 1.6c-11.3 1.3-11.9 1.3-14.5-.7-1.5-1.1-3.1-3.2-3.7-4.7-.8-2.4-.5-3 4.2-7.1 6.8-6 9.3-11.3 9.3-19.8 0-3.7-.6-8.3-1.4-10.2-2.2-5.2-9.2-12.2-14.2-14.1-4.4-1.7-4.5-1.8-4.2-5.7.4-5.8 3.2-7.4 15.8-9.1 5.8-.7 11.1-1.4 11.8-1.5.6 0 1.2.7 1.2 1.6z" />
    <path
        d="m83.5 59.9-13 1.6-.3 4.9-.3 4.9 5.5-.7L81 70v38h3.9c7.4 0 7.1.9 7.1-20.1 0-21.1-.6-19.4 7.5-20.1 2.8-.3 3-.6 3.3-5.1l.3-4.7-3.3.1c-1.8.1-9.1.9-16.3 1.8z" />
    <path
        d="M114 69.1c-7.4.9-13.8 1.8-14.2 1.8-.5.1-.8 2.3-.8 4.9v4.8l5.5-.6 5.5-.6V118l4.3-.6c2.3-.3 4.8-.7 5.5-1 .9-.2 1.2-5 1.2-19.2v-19l3.1-.6c1.7-.3 4.2-.6 5.5-.6 2.2 0 2.4-.4 2.4-5 0-5.9 1.8-5.6-18-2.9z" />
</svg>
